<svg xmlns="http://www.w3.org/2000/svg" viewBox="0 0 1019.28 144.62"><defs><style>.cls-1{fill:#ffcbdd;}</style></defs><title>アセット 17</title><g id="レイヤー_2" data-name="レイヤー 2"><g id="レイヤー_4" data-name="レイヤー 4"><path class="cls-1" d="M9.65,143.63c54.13-32.82,117.5-45.43,180-49.16,70.58-4.21,141.24,2.15,211.85-.09,35.68-1.14,71.24-4.51,106.92-5.86A648.49,648.49,0,0,1,613.57,93.4c35,4.35,69.94,9.91,105.26,10.59a422.59,422.59,0,0,0,96-9.69C878.13,80.81,938.2,54.74,994.84,24q10.71-5.8,21.28-11.86c7.26-4.14.72-15.38-6.56-11.22-56.43,32.19-115.81,60.23-179,76.36a427.71,427.71,0,0,1-94.53,13.66c-34.88.91-69.49-3.63-104-8.15-35.21-4.62-70.27-8.3-105.84-7.75-35.36.55-70.61,3.79-105.92,5.56-71.4,3.59-142.83-2.6-214.24.09C143.6,83,80,92.79,23.63,121q-10.5,5.27-20.54,11.38C-4,136.74,2.47,148,9.65,143.63Z"/></g></g></svg>