<svg xmlns="http://www.w3.org/2000/svg" viewBox="0 0 1015.27 72.96"><defs><style>.cls-1{fill:#ffcbdd;}</style></defs><title>アセット 16</title><g id="レイヤー_2" data-name="レイヤー 2"><g id="レイヤー_4" data-name="レイヤー 4"><path class="cls-1" d="M6.26,71.14A1517.11,1517.11,0,0,0,211.53,67.3c68.09-5.92,135.14-18.69,202.9-27.07,33.6-4.16,67.35-6.76,101.23-6.52,34.05.25,68,2.88,101.91,6.2,65.63,6.43,131.22,15.57,197.31,15,60.27-.48,121.19-8.83,176.77-33.12Q1002,17.3,1012,12c7.41-3.88.85-15.11-6.56-11.23-53.53,28-114,38.83-173.87,40.81C766.82,43.75,702.4,35.71,638.13,29c-33.55-3.51-67.17-6.66-100.89-7.83A737,737,0,0,0,435.72,24.8C368.9,31.73,302.94,45.05,236.11,52A1511.59,1511.59,0,0,1,31.92,59.19q-12.83-.42-25.66-1c-8.36-.41-8.34,12.59,0,13Z"/></g></g></svg>