<svg id="レイヤー_1" data-name="レイヤー 1" xmlns="http://www.w3.org/2000/svg" viewBox="0 0 178.93 48.68"><defs><style>.cls-1{fill:#883d5d;}.cls-2{fill:none;stroke:#f2f2f2;stroke-width:2px;}.cls-3{isolation:isolate;font-size:24px;fill:#f2f2f2;font-family:UDDigiKyokashoNK-B, UD Digi Kyokasho NK-B;}</style></defs><title>download</title><g id="周りの星"><path class="cls-1" d="M13,6.59H165.93c6.63,0,12,4.14,12,9.23V44.05c0,5.09-5.37,9.22-12,9.22H13c-6.63,0-12-4.13-12-9.22V15.82C1,10.73,6.37,6.59,13,6.59Z" transform="translate(0 -5.59)"/><path class="cls-2" d="M13,6.59H165.93c6.63,0,12,4.14,12,9.23V44.05c0,5.09-5.37,9.22-12,9.22H13c-6.63,0-12-4.13-12-9.22V15.82C1,10.73,6.37,6.59,13,6.59Z" transform="translate(0 -5.59)"/></g><g id="周りの星-2" data-name="周りの星"><text class="cls-3" transform="translate(14.09 34.85)">DOWNLOAD</text></g></svg>