<svg id="レイヤー_1" data-name="レイヤー 1" xmlns="http://www.w3.org/2000/svg" viewBox="0 0 1211.73 249.8"><defs><style>.cls-1{fill:#d08eaa;}</style></defs><title>star</title><g id="周りの星"><polygon class="cls-1" points="183.22 133.15 174.34 128.15 165.19 132.64 167.19 122.65 160.1 115.33 170.22 114.15 174.99 105.14 179.24 114.4 189.28 116.15 181.78 123.06 183.22 133.15"/></g><g id="周りの星-2" data-name="周りの星"><polygon class="cls-1" points="313.38 166.47 304.5 161.47 295.35 165.96 297.35 155.97 290.26 148.65 300.38 147.47 305.15 138.46 309.4 147.72 319.44 149.47 311.94 156.38 313.38 166.47"/></g><g id="周りの星-3" data-name="周りの星"><polygon class="cls-1" points="416.11 97.57 407.23 92.57 398.08 97.06 400.08 87.07 392.99 79.75 403.11 78.57 407.88 69.56 412.13 78.82 422.17 80.57 414.67 87.48 416.11 97.57"/></g><g id="周りの星-4" data-name="周りの星"><polygon class="cls-1" points="73.1 249.8 64.22 244.8 55.07 249.29 57.07 239.3 49.98 231.98 60.1 230.8 64.87 221.79 69.12 231.05 79.16 232.8 71.66 239.71 73.1 249.8"/></g><g id="周りの星-5" data-name="周りの星"><polygon class="cls-1" points="613.73 166.47 604.85 161.47 595.7 165.96 597.7 155.97 590.61 148.65 600.73 147.47 605.5 138.46 609.75 147.72 619.79 149.47 612.29 156.38 613.73 166.47"/></g><g id="周りの星-6" data-name="周りの星"><polygon class="cls-1" points="790.34 221.79 781.46 216.79 772.31 221.28 774.31 211.29 767.22 203.97 777.34 202.79 782.11 193.78 786.36 203.04 796.4 204.79 788.9 211.7 790.34 221.79"/></g><g id="周りの星-7" data-name="周りの星"><polygon class="cls-1" points="697.75 79.77 688.87 74.77 679.72 79.25 681.72 69.27 674.63 61.95 684.75 60.77 689.52 51.76 693.77 61.02 703.81 62.77 696.31 69.67 697.75 79.77"/></g><g id="周りの星-8" data-name="周りの星"><polygon class="cls-1" points="894.56 133.15 885.68 128.15 876.53 132.64 878.53 122.65 871.44 115.33 881.56 114.15 886.33 105.14 890.58 114.4 900.62 116.15 893.12 123.06 894.56 133.15"/></g><g id="周りの星-9" data-name="周りの星"><polygon class="cls-1" points="23.12 28.01 14.24 23.01 5.09 27.5 7.09 17.51 0 10.19 10.12 9.01 14.89 0 19.14 9.26 29.18 11.01 21.68 17.92 23.12 28.01"/></g><g id="周りの星-10" data-name="周りの星"><polygon class="cls-1" points="1148.33 207.78 1139.44 202.78 1130.3 207.27 1132.3 197.28 1125.2 189.96 1135.33 188.78 1140.1 179.77 1144.35 189.03 1154.38 190.78 1146.88 197.69 1148.33 207.78"/></g><g id="周りの星-11" data-name="周りの星"><polygon class="cls-1" points="961.2 214.47 952.32 209.47 943.17 213.96 945.17 203.97 938.08 196.65 948.2 195.47 952.97 186.46 957.22 195.72 967.26 197.47 959.76 204.38 961.2 214.47"/></g><g id="周りの星-12" data-name="周りの星"><polygon class="cls-1" points="1205.67 111.57 1196.79 106.57 1187.64 111.06 1189.64 101.07 1182.55 93.75 1192.67 92.57 1197.44 83.56 1201.69 92.82 1211.73 94.57 1204.23 101.48 1205.67 111.57"/></g><g id="周りの星-13" data-name="周りの星"><polygon class="cls-1" points="284.2 42.02 275.32 37.02 266.17 41.51 268.17 31.52 261.08 24.2 271.2 23.02 275.97 14.01 280.22 23.27 290.26 25.02 282.76 31.93 284.2 42.02"/></g><g id="周りの星-14" data-name="周りの星"><polygon class="cls-1" points="1032.99 37.6 1024.11 32.6 1014.96 37.09 1016.96 27.11 1009.87 19.79 1019.99 18.61 1024.76 9.6 1029.01 18.86 1039.05 20.61 1031.55 27.52 1032.99 37.6"/></g></svg>