<svg xmlns="http://www.w3.org/2000/svg" viewBox="0 0 513.68 80.91"><defs><style>.cls-1{fill:#fcebf3;}.cls-2{fill:#47333d;}.cls-3{fill:#3e000c;}.cls-4{fill:#ffcbdd;}</style></defs><title>アセット 15</title><g id="レイヤー_2" data-name="レイヤー 2"><g id="レイヤー_3" data-name="レイヤー 3"><polygon class="cls-1" points="363.14 75.46 335.67 71.19 325.63 45.27 343.06 23.61 370.54 27.88 380.57 53.81 363.14 75.46"/></g><g id="タイトル"><path class="cls-2" d="M513.09,35.44c1.13.94,1.13,1.6,0,2H464.15V35.72h40.78l2.82-2.81.84-.84Z" transform="translate(-0.25 -0.25)"/><path class="cls-3" d="M491.28,73.41h20.4a11.2,11.2,0,0,0-2.81,3.38H484Z" transform="translate(-0.25 -0.25)"/><path class="cls-2" d="M508.31,54q1.13,1.41-2.25.84l-8.72,5.34-.7-.7,6.61-6.6,2-2Z" transform="translate(-0.25 -0.25)"/><path class="cls-3" d="M506.9,19.41c1.13.94.75,1.6-1.12,2v.17l-3.66.29v-1.3H494v1.95l-3.66.29V20.54H483v2.85l-3.66.31V20.54h-7.59v3.82l-3.66.32V16.6l4.22,2.25h29L503,16.6Z" transform="translate(-0.25 -0.25)"/><path class="cls-2" d="M506.28,66.38a3.43,3.43,0,0,1,.06.56,1.49,1.49,0,0,1-1.69,1.69,2.77,2.77,0,0,1-1.51-.77Z" transform="translate(-0.25 -0.25)"/><path class="cls-2" d="M505.78,25.85v5.09c-2.44,2.25-3.66,2.35-3.66.28v-.84H471.75v1.69c-1.27,1.17-2.21,1.76-2.82,1.76s-.84-.49-.84-1.48V29l3.66-.33v0h7.59V28L483,27.7v1h7.31v-1.6l3.66-.3v1.9h8.15V26.14Z" transform="translate(-0.25 -0.25)"/><path class="cls-2" d="M503.53,42.47q1.68,1.41-1.13,2V52c-2.44,2.25-3.65,2.34-3.65.28V43.6H475.12v6.19H485v1.68h-9.85v1.69c-2.44,2.25-3.65,2.35-3.65.28V40.22l3.93,1.69h22.5l1.69-2.25Z" transform="translate(-0.25 -0.25)"/><path class="cls-2" d="M503.18,63.07c-1.17.56-2.34,1.13-3.52,1.68a33.15,33.15,0,0,0-11-5.68V69.92l-3.39,1.58a2.13,2.13,0,0,1-.26-1.18V56a60.85,60.85,0,0,1-18.85,10.41c-1.31.19-1.59-.18-.84-1.13q14.61-7.3,19.69-13.78V49.79h13.78v1.68H488.62v6.47a50.15,50.15,0,0,1,7.6,2l.42-.42.7.7Q501.15,62,503.18,63.07Z" transform="translate(-0.25 -0.25)"/><path class="cls-2" d="M481.13,73.41l-6.24,2.89q-8.49-1.77-16.64-9.92l-.31.25-1.1-1.38V45h-9.28V43.32H456l1.68-2.25,3.94,2.81c1.13.94.75,1.6-1.12,2V66.1a29.41,29.41,0,0,0,19.4,7.31Z" transform="translate(-0.25 -0.25)"/><path class="cls-4" d="M460.6,25.37l-4.85.44A17.2,17.2,0,0,0,449,20.25c-1-.56-.85-.93.28-1.12q6.75,1.41,10.12,4.78A10.37,10.37,0,0,1,460.6,25.37Z" transform="translate(-0.25 -0.25)"/><path class="cls-2" d="M461.44,29.59a1.74,1.74,0,0,1-1.79,1.35,2.07,2.07,0,0,1-1.54-1.05Z" transform="translate(-0.25 -0.25)"/><path class="cls-2" d="M456.84,65.25l1.1,1.38L451.22,72q-1.14,4.21-2.25,1.68l-2.54-3.94Z" transform="translate(-0.25 -0.25)"/><path class="cls-2" d="M441.49,27.2l-5.51.56L435.9,27l1.69-2.81Z" transform="translate(-0.25 -0.25)"/><path class="cls-3" d="M438.15,38.22c1.12.94.75,1.6-1.13,2V53.13a4.6,4.6,0,0,1-1.12,3.38,4.71,4.71,0,0,1-3.09,1.68c-.95,0-1.41-.38-1.41-1.12a1.81,1.81,0,0,0-1.13-1.69l-3.65-.84c-.38-.38-.38-.66,0-.85h4.78a1.74,1.74,0,0,0,2-2V39.35h-.85V37.66l1.69-2.25Z" transform="translate(-0.25 -0.25)"/><path class="cls-2" d="M437.94,31.79l-2.88,1.93c-1.13.76-1.41.47-.85-.84l.36-.76Z" transform="translate(-0.25 -0.25)"/><path class="cls-2" d="M435.9,27l.08.79q-4.37.43-8.72.9h-6v.63l-3.65.39v-1H402.43c-.06,1-.13,1.92-.22,2.71l-3.74.42a20.24,20.24,0,0,0,2.27-4.54l.85-3.09q.27-1.12.84,0V27Z" transform="translate(-0.25 -0.25)"/><path class="cls-2" d="M435.06,3.91q1.68,1.41-1.13,2v16c-2.44,2.25-3.66,2.35-3.66.28v-1.4h-27V19.1h27V12.91H404.4V11.22h25.87V5h-27V3.35h26.16l1.69-2.25Z" transform="translate(-0.25 -0.25)"/><path class="cls-2" d="M432.52,37.66v1.69H421.27v23.9c-2.43,2.26-3.65,2.35-3.65.29V33.82l3.65-.37v4.21Z" transform="translate(-0.25 -0.25)"/><path class="cls-2" d="M417.62,37.66v1.69h-11V56.51c-2.44,2.24-3.66,2.34-3.66.28V35.34l.3,0,3.92,2.35Z" transform="translate(-0.25 -0.25)"/><path class="cls-2" d="M397.59,35.92l3.41-.37c-.66.82-1.3,1.15-1.94,1A1.65,1.65,0,0,1,397.59,35.92Z" transform="translate(-0.25 -0.25)"/><path class="cls-2" d="M395.12,1.1c1.5.94,1.12,1.59-1.13,2V32.3l-3.65.41V.25Z" transform="translate(-0.25 -0.25)"/><path class="cls-2" d="M394,36.31v.23q0,16.31-12.09,25c-1.13.74-1.41.46-.84-.85q9-8.44,9.26-24Z" transform="translate(-0.25 -0.25)"/><path class="cls-2" d="M383.87,17.13q2.25,9,1.12,14.62a6.68,6.68,0,0,1-.62,1.64l-4.58.53q-1.05-2,1-4.7,2.25-3.09,2-12.37C383.12,16.1,383.49,16.19,383.87,17.13Z" transform="translate(-0.25 -0.25)"/><path class="cls-4" d="M369.15,48a11,11,0,0,1-.18,8.77,11.32,11.32,0,0,1-5.9,6c-4,1.86-8.83,2.09-14.62.7-.31-.37-.23-.57.26-.6,5,.8,9.23.32,12.82-1.47a11,11,0,0,0,5.26-5.73,10.27,10.27,0,0,0,.63-7.33,12.33,12.33,0,0,0-3.3-5.16l1.61-.19A14.62,14.62,0,0,1,369.15,48Z" transform="translate(-0.25 -0.25)"/><path class="cls-3" d="M362.06,40.29l-1.81.21A25.84,25.84,0,0,0,356.54,39a12.29,12.29,0,0,1,1.16,1.82l-2.06.24a2.33,2.33,0,0,0-.06-2.29,13.28,13.28,0,0,0-8.42.68,14.52,14.52,0,0,0-4.91,3.18l-2.66.31a13.4,13.4,0,0,1,5.56-4.17,17.74,17.74,0,0,1,14.09.14A23.14,23.14,0,0,1,362.06,40.29Z" transform="translate(-0.25 -0.25)"/><path class="cls-2" d="M353,44.5l3.43-.41q-7.71,8.32-13.16,11.71a8.64,8.64,0,0,1-2.85,1.27c-1.43.34-2.14-.08-2.11-1.25a5,5,0,0,1-1.9-3.45,10.58,10.58,0,0,1,.9-5.46c.08-.19.17-.38.25-.56l2.26-.28c-.14.28-.27.56-.39.85-1.28,3-1.6,5.29-1,6.85a2.39,2.39,0,0,0,1.18,1.39,2.71,2.71,0,0,0,1.88-.27A57,57,0,0,0,353,44.5Z" transform="translate(-0.25 -0.25)"/><path class="cls-2" d="M326.91,72.51q2,.84,0,2.53c-.57.56-2.25.84-5.07.84h-4.13c.05-1.12.1-2.25.13-3.37h2.32c1.87,0,2.9-.66,3.09-2l1.69-8.72q.56-.57.84,0v8.72A2,2,0,0,0,326.91,72.51Z" transform="translate(-0.25 -0.25)"/><path class="cls-2" d="M321.28,32c1.13.94.75,1.59-1.12,2v6.9l-3.66.43V33.13H296.25V43.6l-3.66.4V28.91l4.22,2.53h10.41l.18-.47,1.22.47h7l1.68-2.25Z" transform="translate(-0.25 -0.25)"/><path class="cls-2" d="M320.16,44.93v6.76c-2.44,2.25-3.66,2.35-3.66.28V45.38Z" transform="translate(-0.25 -0.25)"/><path class="cls-2" d="M317.91,18.79q2.8,1.41-2.25,1.68l-7,11L307.4,31l5.72-15Z" transform="translate(-0.25 -0.25)"/><path class="cls-2" d="M316.5,48v1.68h-4.78V71.38a1,1,0,0,0,1.12,1.13h.7c0,1.12-.08,2.25-.13,3.37h-2c-2.25,0-3.38-1.13-3.38-3.37V48Z" transform="translate(-0.25 -0.25)"/><path class="cls-2" d="M308.06,48v1.68H303v3.94Q303,71.38,282.47,79c-1.13,0-1.22-.47-.28-1.4q17.15-7.32,17.15-24.75v-3.1h-3.09V53.1c-2.44,2.25-3.66,2.35-3.66.28V48.23l3.66-.43V48Z" transform="translate(-0.25 -0.25)"/><path class="cls-2" d="M304.12,27.22c0,1.88-.65,2.82-2,2.82-.76,0-1.41-.85-2-2.53a19.5,19.5,0,0,0-7-9.85c-.19-.56.09-.75.84-.56Q304.13,21.6,304.12,27.22Z" transform="translate(-0.25 -0.25)"/><path class="cls-2" d="M289.5,28.63c1.12.94,1.12,1.6,0,2H261.66V28.91h19.68L285,25.25Z" transform="translate(-0.25 -0.25)"/><path class="cls-3" d="M285.56,19.91c1.13.94,1.13,1.6,0,2H265V20.19h13.5l3.09-3.09Z" transform="translate(-0.25 -0.25)"/><path class="cls-2" d="M284.72,37.35c1.12.94,1.12,1.59,0,2H265V37.63h12.66l3.09-3.09Z" transform="translate(-0.25 -0.25)"/><path class="cls-2" d="M284.18,44.92l-5.19.57-.81.09,2.88-2.89Z" transform="translate(-0.25 -0.25)"/><path class="cls-2" d="M283.87,55.63c1.13.94.75,1.6-1.12,2V73.91q-3.66,3.38-3.66.28V56.75h-.84V55.07l1.69-2.25Z" transform="translate(-0.25 -0.25)"/><path class="cls-2" d="M279.09,69.41V71.1h-9v5.62c-2.44,2.25-3.65,2.35-3.65.29V52.54l4.22,2.53h7.59v1.68h-8.16V69.41Z" transform="translate(-0.25 -0.25)"/><path class="cls-2" d="M276.17,45.79,265,47V45.79Z" transform="translate(-0.25 -0.25)"/><path class="cls-2" d="M253.17,28.69c1.13.94,1.13,1.6,0,2H225.05l2.25,1.41c.93,1.5,0,2-2.82,1.4l-8.76,19.28-2.42.33q4.72-12.15,7.81-22.42H205.92V29h37.69l4.22-4.22Z" transform="translate(-0.25 -0.25)"/><path class="cls-3" d="M251.76,58.51c0,2.24-.84,3.37-2.53,3.37-1.12,0-2-1.22-2.53-3.66l-1.86-4.77,5.61-.62A13.9,13.9,0,0,1,251.76,58.51Z" transform="translate(-0.25 -0.25)"/><path class="cls-2" d="M248.08,48.8l-5,.56a43,43,0,0,0-8.72-11.67q-.57-1.39.84-.84Q243.95,43.11,248.08,48.8Z" transform="translate(-0.25 -0.25)"/><path class="cls-2" d="M247.55,9c1.12.94,1.12,1.59,0,2H210.42V9.81l.66-.52H238l4.22-4.22Z" transform="translate(-0.25 -0.25)"/><path class="cls-2" d="M240.84,53.9,211,59.63q-1.12,5.07-3.09,1.12l-1.36-2.34C217.93,56.68,229.37,55.22,240.84,53.9Z" transform="translate(-0.25 -0.25)"/><path class="cls-4" d="M210.44,4.6l-2,1.53c-.27,0-.56,0-.87.06l-.36.88c-2.18,1.66-4.37,3.29-6.61,4.84q2-5.35,3.59-11.06L209,3.66A6.88,6.88,0,0,1,210.44,4.6Z" transform="translate(-0.25 -0.25)"/><path class="cls-2" d="M202.83,21.38q3.09,1.13-1.41,2.25V54.86l-3.66.59V27.29a60.58,60.58,0,0,1-9.56,12.65c-1.12.57-1.5.28-1.12-.84a126.7,126.7,0,0,0,10.8-20.23c2.05-1.31,4.05-2.7,6-4.14-.89,1.92-1.81,3.86-2.78,5.81Z" transform="translate(-0.25 -0.25)"/><path class="cls-2" d="M201.42,59.21v5.2q-3.66,3.38-3.66.28V59.81Z" transform="translate(-0.25 -0.25)"/><path class="cls-2" d="M165.2,77.51a3.82,3.82,0,0,1-1.13,2.81,2.42,2.42,0,0,1-1.69.84,2.54,2.54,0,0,1-2.25-1.69c-.94-1.68-2.15-3.84-3.65-6.46a36.26,36.26,0,0,0-6.75-7.32c-.94-.74-.85-1.12.28-1.12a29.71,29.71,0,0,1,12.65,7.87A7.31,7.31,0,0,1,165.2,77.51Z" transform="translate(-0.25 -0.25)"/><path class="cls-4" d="M139,27.1c1.12.94,1.12,1.59,0,2H122.15c0-.57.08-1.13.1-1.69h8.63l3.66-3.66Z" transform="translate(-0.25 -0.25)"/><path class="cls-2" d="M132.57,8.54c1.69.94.47,1.4-3.66,1.4q-6.47,1.13-13.21,2V27.38H118c0,.56-.06,1.12-.1,1.69H115.7V42.29h1c-.06.56-.13,1.12-.19,1.68H102.2V42.29H112V29.07H93.2V27.38H112V12.75a96.64,96.64,0,0,1-16,2c-1.13-.37-1.13-.84,0-1.4a146.55,146.55,0,0,0,31.22-8.44Z" transform="translate(-0.25 -0.25)"/><path class="cls-2" d="M131.73,42.85c1.12.94.74,1.59-1.13,2V55.57L127,57.78V44h-6.16c.06-.56.13-1.12.19-1.68h5.12L127.79,40Z" transform="translate(-0.25 -0.25)"/><path class="cls-2" d="M130.6,60.6v4.19c-2.44,2.25-3.65,2.34-3.65.28V62.81Z" transform="translate(-0.25 -0.25)"/><path class="cls-2" d="M123.73,59.72l-2.81,1.69H101.63v3.38C99.19,67,98,67.13,98,65.07V39.47l4.22,2.82V44h-.57V59.72Z" transform="translate(-0.25 -0.25)"/><path class="cls-2" d="M94.6,9.94,84.48,43.69a25,25,0,0,0-.28,12.38q1.11,5.06.56,7.59A2.67,2.67,0,0,1,82,65.91a2.49,2.49,0,0,1-2.82-2.81,33.28,33.28,0,0,1,.57-4.78,32.08,32.08,0,0,0,0-8.44c-.19-1.5-1.23-2.43-3.1-2.81l-3.09-.56V45.38h6.75l12.94-36C93.94,8.44,94.41,8.63,94.6,9.94Z" transform="translate(-0.25 -0.25)"/><path class="cls-2" d="M89,11.63c0,1.69-.75,2.53-2.25,2.53-.57.19-1.32-.46-2.25-2a16.84,16.84,0,0,0-5.91-5.34c-.75-.37-.75-.75,0-1.13Q89,8,89,11.63Z" transform="translate(-0.25 -0.25)"/><path class="cls-3" d="M83.07,28.22c0,1.88-.56,2.82-1.69,2.82-.94,0-1.68-.75-2.25-2.25a11.51,11.51,0,0,0-4.5-5.91c-1.12-.94-1-1.41.28-1.41Q83.07,24.29,83.07,28.22Z" transform="translate(-0.25 -0.25)"/><path class="cls-2" d="M64.7,19.47c1.12.94,1.12,1.6,0,2H32.35a46.56,46.56,0,0,1-2.81,4.5l-.84,1.13a39.22,39.22,0,0,1-7.6,8.44c-.94,0-1.12-.38-.56-1.13,1.08-1.32,2.09-2.68,3.06-4.07a68.38,68.38,0,0,0,9.32-19.56l4.78,2q2.8,1.14-2,2.25a35.87,35.87,0,0,1-2.53,4.78H55.14l4.21-4.21Z" transform="translate(-0.25 -0.25)"/><path class="cls-3" d="M65.26,69.54q-3.38,2-4.22,3.93A65.45,65.45,0,0,1,49.93,69.8a40.93,40.93,0,0,1,3.92-2.6A59,59,0,0,0,65.26,69.54Z" transform="translate(-0.25 -0.25)"/><path class="cls-2" d="M57.38,54.07q2,2-1.68,1.4a67.4,67.4,0,0,1-9.85,8.44c1,.52,2,1,3.1,1.46-1.06.74-2.09,1.54-3.12,2.34A29.24,29.24,0,0,1,43,65.88Q33.76,72.06,19.7,74.6c-1.32,0-1.51-.38-.56-1.13q13.5-3.09,22.21-9.28a28.89,28.89,0,0,1-7-8.72,52.94,52.94,0,0,1-15.75,11c-.59,0-.88-.14-.88-.43a1.29,1.29,0,0,1,.32-.69q13.22-7.87,18.56-19.13V44.51H52.32V29.6h-.56V27.91l1.69-2,3.65,2.53c1.13.94.75,1.6-1.12,2V47.6c-1.27,1.17-2.21,1.76-2.82,1.76s-.84-.49-.84-1.48V46.19H39.38l1.41,1.41q1.41,1.41-1.41.84a44.31,44.31,0,0,1-3.65,4.78H51.48l2-2Zm-5.9.84h-16a34,34,0,0,0,7.87,7.6A51.26,51.26,0,0,0,51.48,54.91Z" transform="translate(-0.25 -0.25)"/><path class="cls-2" d="M52.32,35.79v1.68h-20v7h4.22v1.68H32.35v2.25c-2.44,2.25-3.65,2.35-3.65.28V27.07l.84-1.13,3.38,2H51.76V29.6H32.35v6.19Z" transform="translate(-0.25 -0.25)"/><polygon class="cls-4" points="52.07 29.35 52.07 35.54 32.1 35.54 32.1 29.35 51.51 29.35 52.07 29.35"/><path class="cls-2" d="M22.14,29.33c.22.6-.69,1-2.72,1.11q-2.82,4.5-5.07,7.88l1.69.84q2.25,1.41-1.12,2V73.47c-2.44,2.25-3.66,2.35-3.66.28V42A84,84,0,0,1,1.14,51.54c-.95,0-1.13-.38-.57-1.13a75,75,0,0,0,16.6-23.9l4.5,2.24A1.44,1.44,0,0,1,22.14,29.33Z" transform="translate(-0.25 -0.25)"/><path class="cls-3" d="M20.82,14.13c.56,1.12-.38,1.5-2.81,1.12a47.61,47.61,0,0,1-6.34,6.83c-.55-.77-1.12-1.52-1.73-2.24A64.59,64.59,0,0,0,16.32,11Z" transform="translate(-0.25 -0.25)"/><path class="cls-2" d="M7,23c.48.58.93,1.19,1.37,1.8a67.16,67.16,0,0,1-7.2,4.79c-.95,0-1.13-.37-.57-1.13A55.13,55.13,0,0,0,7,23Z" transform="translate(-0.25 -0.25)"/></g></g></svg>