<svg id="レイヤー_1" data-name="レイヤー 1" xmlns="http://www.w3.org/2000/svg" viewBox="0 0 717.97 287"><defs><style>.cls-1{fill:#fcebf3;}.cls-2{fill:#47333d;}.cls-3{fill:#3e000c;}.cls-4{fill:#ffcbdd;}.cls-5{fill:#e6e6e6;stroke:#000;stroke-miterlimit:10;stroke-width:0.25px;}</style></defs><title>title</title><g id="レイヤー_3" data-name="レイヤー 3"><polygon class="cls-1" points="471.17 197.46 443.7 193.19 433.66 167.27 451.09 145.61 478.57 149.88 488.6 175.81 471.17 197.46"/></g><g id="タイトル"><path class="cls-2" d="M626.7,189.13c1.13.94,1.13,1.6,0,2H577.76v-1.72h40.78l2.82-2.81.84-.84Z" transform="translate(-5.83 -31.94)"/><path class="cls-3" d="M604.89,227.1h20.4a11.16,11.16,0,0,0-2.81,3.38H597.61Z" transform="translate(-5.83 -31.94)"/><path class="cls-2" d="M621.92,207.69q1.13,1.41-2.25.84L611,213.87l-.7-.7,6.61-6.6,2-2Z" transform="translate(-5.83 -31.94)"/><path class="cls-3" d="M620.51,173.1c1.13.94.75,1.6-1.12,2v.17l-3.66.29v-1.3h-8.12v2l-3.66.29v-2.27h-7.34v2.85l-3.66.31v-3.16h-7.59v3.82l-3.66.32v-8.08l4.22,2.25h29l1.69-2.25Z" transform="translate(-5.83 -31.94)"/><path class="cls-2" d="M619.89,220.07a5.62,5.62,0,0,1,.06.56,1.49,1.49,0,0,1-1.26,1.69,1.55,1.55,0,0,1-.43,0,2.74,2.74,0,0,1-1.51-.77Z" transform="translate(-5.83 -31.94)"/><path class="cls-2" d="M619.39,179.54v5.09c-2.44,2.25-3.66,2.35-3.66.28v-.84H585.36v1.69c-1.27,1.17-2.21,1.76-2.82,1.76s-.84-.49-.84-1.48v-3.35l3.66-.33H593v-.67l3.66-.3v1h7.31v-1.6l3.66-.3v1.9h8.15v-2.56Z" transform="translate(-5.83 -31.94)"/><path class="cls-2" d="M617.14,196.16q1.68,1.41-1.13,2v7.53c-2.44,2.25-3.65,2.34-3.65.28v-8.68H588.73v6.19h9.88v1.68h-9.85v1.69c-2.44,2.25-3.65,2.35-3.65.28V193.91L589,195.6h22.5l1.69-2.25Z" transform="translate(-5.83 -31.94)"/><path class="cls-2" d="M616.79,216.76c-1.17.56-2.34,1.13-3.52,1.68a33.4,33.4,0,0,0-11-5.68v10.85l-3.39,1.58a2.11,2.11,0,0,1-.26-1.18V209.69a60.76,60.76,0,0,1-18.85,10.41c-1.31.19-1.59-.18-.84-1.13q14.61-7.29,19.69-13.78v-1.71H612.4v1.68H602.23v6.47a51.21,51.21,0,0,1,7.6,2l.42-.42.7.7Q614.76,215.7,616.79,216.76Z" transform="translate(-5.83 -31.94)"/><path class="cls-2" d="M594.74,227.1,588.5,230q-8.49-1.77-16.64-9.92l-.31.25-1.1-1.38V198.69h-9.28V197h8.44l1.68-2.25,3.94,2.81c1.13.94.75,1.6-1.12,2v20.22a29.4,29.4,0,0,0,19.4,7.31Z" transform="translate(-5.83 -31.94)"/><path class="cls-4" d="M574.21,179.06l-4.85.44a17.21,17.21,0,0,0-6.75-5.56c-1-.56-.85-.93.28-1.12q6.75,1.41,10.12,4.78A11.22,11.22,0,0,1,574.21,179.06Z" transform="translate(-5.83 -31.94)"/><path class="cls-2" d="M575.05,183.28a1.74,1.74,0,0,1-1.79,1.35,2,2,0,0,1-1.54-1Z" transform="translate(-5.83 -31.94)"/><path class="cls-2" d="M570.45,218.94l1.1,1.38-6.72,5.37q-1.14,4.22-2.25,1.68L560,223.43Z" transform="translate(-5.83 -31.94)"/><path class="cls-2" d="M555.1,180.89l-5.51.56-.08-.76,1.69-2.81Z" transform="translate(-5.83 -31.94)"/><path class="cls-3" d="M551.76,191.91c1.12.94.75,1.6-1.13,2v12.91a4.63,4.63,0,0,1-1.12,3.38,4.71,4.71,0,0,1-3.09,1.68c-.95,0-1.41-.38-1.41-1.12a1.82,1.82,0,0,0-1.13-1.69l-3.65-.84c-.38-.38-.38-.66,0-.85H545a1.73,1.73,0,0,0,2-1.43,1.82,1.82,0,0,0,0-.57V193h-.85v-1.69l1.69-2.25Z" transform="translate(-5.83 -31.94)"/><path class="cls-2" d="M551.55,185.48l-2.88,1.93c-1.13.76-1.41.47-.85-.84l.36-.76Z" transform="translate(-5.83 -31.94)"/><path class="cls-2" d="M549.51,180.69l.08.79q-4.37.44-8.72.9h-6V183l-3.65.39v-1H516c-.06,1-.13,1.92-.22,2.71l-3.74.42a20.08,20.08,0,0,0,2.27-4.54l.85-3.09q.27-1.11.84,0v2.79Z" transform="translate(-5.83 -31.94)"/><path class="cls-2" d="M548.67,157.6q1.68,1.41-1.13,2v16c-2.44,2.25-3.66,2.35-3.66.28v-1.4h-27v-1.69h27V166.6H518v-1.69h25.87v-6.22h-27V157H543l1.69-2.25Z" transform="translate(-5.83 -31.94)"/><path class="cls-2" d="M546.13,191.35V193H534.88v23.9c-2.43,2.26-3.65,2.35-3.65.29V187.51l3.65-.37v4.21Z" transform="translate(-5.83 -31.94)"/><path class="cls-2" d="M531.23,191.35V193h-11V210.2c-2.44,2.24-3.66,2.34-3.66.28V189h.3l3.92,2.35Z" transform="translate(-5.83 -31.94)"/><path class="cls-2" d="M511.2,189.61l3.41-.37c-.66.82-1.3,1.15-1.94,1A1.64,1.64,0,0,1,511.2,189.61Z" transform="translate(-5.83 -31.94)"/><path class="cls-2" d="M508.73,154.79c1.5.94,1.12,1.59-1.13,2V186l-3.65.41V153.94Z" transform="translate(-5.83 -31.94)"/><path class="cls-2" d="M507.61,190v.23q0,16.32-12.09,25c-1.13.74-1.41.46-.84-.85q9-8.43,9.26-24Z" transform="translate(-5.83 -31.94)"/><path class="cls-2" d="M497.48,170.82q2.25,9,1.12,14.62a6.24,6.24,0,0,1-.62,1.64l-4.58.53q-1-2,1-4.7,2.25-3.09,2-12.37C496.73,169.79,497.1,169.88,497.48,170.82Z" transform="translate(-5.83 -31.94)"/><path class="cls-4" d="M482.76,201.69a11,11,0,0,1-.18,8.77,11.28,11.28,0,0,1-5.9,6c-4,1.86-8.83,2.09-14.62.7-.31-.37-.23-.57.26-.6,5,.8,9.23.32,12.82-1.47a11,11,0,0,0,5.26-5.73A10.27,10.27,0,0,0,481,202a12.34,12.34,0,0,0-3.3-5.16l1.61-.19A14.71,14.71,0,0,1,482.76,201.69Z" transform="translate(-5.83 -31.94)"/><path class="cls-3" d="M475.67,194l-1.81.21a27.68,27.68,0,0,0-3.71-1.5,11.93,11.93,0,0,1,1.16,1.82l-2.06.24a2.34,2.34,0,0,0-.06-2.29,13.37,13.37,0,0,0-8.42.68,14.53,14.53,0,0,0-4.91,3.18l-2.66.31a13.43,13.43,0,0,1,5.56-4.17,17.74,17.74,0,0,1,14.09.14A24.52,24.52,0,0,1,475.67,194Z" transform="translate(-5.83 -31.94)"/><path class="cls-2" d="M466.61,198.19l3.43-.41q-7.71,8.33-13.16,11.71a8.4,8.4,0,0,1-2.85,1.27c-1.43.34-2.14-.08-2.11-1.25a5,5,0,0,1-1.9-3.45,10.58,10.58,0,0,1,.9-5.46c.08-.19.17-.38.25-.56l2.26-.28c-.14.28-.27.56-.39.85-1.28,3-1.6,5.29-1,6.85a2.39,2.39,0,0,0,1.18,1.39,2.67,2.67,0,0,0,1.88-.27A57.13,57.13,0,0,0,466.61,198.19Z" transform="translate(-5.83 -31.94)"/><path class="cls-2" d="M440.52,226.2c1.33.56,1.33,1.41,0,2.53-.57.56-2.25.84-5.07.84h-4.13c.05-1.12.1-2.25.13-3.37h2.32c1.87,0,2.9-.66,3.09-2l1.69-8.72q.56-.57.84,0v8.72A2,2,0,0,0,440.52,226.2Z" transform="translate(-5.83 -31.94)"/><path class="cls-2" d="M434.89,185.69c1.13.94.75,1.59-1.12,2v6.9l-3.66.43v-8.2H409.86v10.47l-3.66.4V182.6l4.22,2.53h10.41l.18-.47,1.22.47h7l1.68-2.25Z" transform="translate(-5.83 -31.94)"/><path class="cls-2" d="M433.77,198.62v6.76c-2.44,2.25-3.66,2.35-3.66.28v-6.59Z" transform="translate(-5.83 -31.94)"/><path class="cls-2" d="M431.52,172.48q2.81,1.41-2.25,1.68l-7,11-1.26-.47,5.72-15Z" transform="translate(-5.83 -31.94)"/><path class="cls-2" d="M430.11,201.69v1.68h-4.78v21.7a1,1,0,0,0,.85,1.13.82.82,0,0,0,.27,0h.7c0,1.12-.08,2.25-.13,3.37h-2c-2.25,0-3.38-1.13-3.38-3.37V201.69Z" transform="translate(-5.83 -31.94)"/><path class="cls-2" d="M421.67,201.69v1.68h-5.06v3.94q0,17.76-20.53,25.38c-1.13,0-1.22-.47-.28-1.4Q412.95,224,413,206.54v-3.1h-3.09v3.35c-2.44,2.25-3.66,2.35-3.66.28v-5.15l3.66-.43v.2Z" transform="translate(-5.83 -31.94)"/><path class="cls-2" d="M417.73,180.91c0,1.88-.65,2.82-2,2.82-.76,0-1.41-.85-2-2.53a19.49,19.49,0,0,0-7-9.85c-.19-.56.09-.75.84-.56Q417.74,175.29,417.73,180.91Z" transform="translate(-5.83 -31.94)"/><path class="cls-2" d="M403.11,182.32c1.12.94,1.12,1.6,0,2H375.27V182.6H395l3.66-3.66Z" transform="translate(-5.83 -31.94)"/><path class="cls-3" d="M399.17,173.6c1.13.94,1.13,1.6,0,2H378.61v-1.72h13.5l3.09-3.09Z" transform="translate(-5.83 -31.94)"/><path class="cls-2" d="M398.33,191c1.12.94,1.12,1.59,0,2H378.61v-1.72h12.66l3.09-3.09Z" transform="translate(-5.83 -31.94)"/><path class="cls-2" d="M397.79,198.61l-5.19.57-.81.09,2.88-2.89Z" transform="translate(-5.83 -31.94)"/><path class="cls-2" d="M397.48,209.32c1.13.94.75,1.6-1.12,2V227.6q-3.66,3.39-3.66.28V210.44h-.84v-1.68l1.69-2.25Z" transform="translate(-5.83 -31.94)"/><path class="cls-2" d="M392.7,223.1v1.69h-9v5.62c-2.44,2.25-3.65,2.35-3.65.29V206.23l4.22,2.53h7.59v1.68H383.7V223.1Z" transform="translate(-5.83 -31.94)"/><path class="cls-2" d="M389.78,199.48l-11.17,1.21v-1.21Z" transform="translate(-5.83 -31.94)"/><path class="cls-2" d="M366.78,182.38c1.13.94,1.13,1.6,0,2H338.66l2.25,1.41c.93,1.5,0,2-2.82,1.4l-8.76,19.28-2.42.33q4.72-12.15,7.81-22.42H319.53v-1.69h37.69l4.22-4.22Z" transform="translate(-5.83 -31.94)"/><path class="cls-3" d="M365.37,212.2c0,2.24-.84,3.37-2.53,3.37-1.12,0-2-1.22-2.53-3.66l-1.86-4.77,5.61-.62A14,14,0,0,1,365.37,212.2Z" transform="translate(-5.83 -31.94)"/><path class="cls-2" d="M361.69,202.49l-5,.56A43.13,43.13,0,0,0,348,191.38q-.57-1.38.84-.84Q357.55,196.81,361.69,202.49Z" transform="translate(-5.83 -31.94)"/><path class="cls-2" d="M361.16,162.69c1.12.94,1.12,1.59,0,2H324V163.5l.66-.52h26.92l4.22-4.22Z" transform="translate(-5.83 -31.94)"/><path class="cls-2" d="M354.45,207.59l-29.84,5.73q-1.12,5.07-3.09,1.12l-1.36-2.34C331.54,210.37,343,208.91,354.45,207.59Z" transform="translate(-5.83 -31.94)"/><path class="cls-4" d="M324.05,158.29l-2,1.53a4.44,4.44,0,0,0-.87.06l-.36.88c-2.18,1.66-4.37,3.29-6.61,4.84q2-5.34,3.59-11.06l4.81,2.81A7.28,7.28,0,0,1,324.05,158.29Z" transform="translate(-5.83 -31.94)"/><path class="cls-2" d="M316.44,175.07q3.09,1.14-1.41,2.25v31.23l-3.66.59V181a60.47,60.47,0,0,1-9.56,12.65c-1.12.57-1.5.28-1.12-.84a126.64,126.64,0,0,0,10.8-20.23c2.05-1.31,4.05-2.7,6-4.14-.89,1.92-1.81,3.86-2.78,5.81Z" transform="translate(-5.83 -31.94)"/><path class="cls-2" d="M315,212.9v5.2q-3.66,3.39-3.66.28V213.5Z" transform="translate(-5.83 -31.94)"/><path class="cls-2" d="M278.81,231.2a3.78,3.78,0,0,1-1.13,2.81,2.42,2.42,0,0,1-1.69.84,2.52,2.52,0,0,1-2.25-1.69c-.94-1.68-2.15-3.84-3.65-6.46a36.37,36.37,0,0,0-6.75-7.32c-.94-.74-.85-1.12.28-1.12a29.78,29.78,0,0,1,12.65,7.87A7.33,7.33,0,0,1,278.81,231.2Z" transform="translate(-5.83 -31.94)"/><path class="cls-4" d="M252.61,180.79c1.12.94,1.12,1.59,0,2H235.76c0-.57.08-1.13.1-1.69h8.63l3.66-3.66Z" transform="translate(-5.83 -31.94)"/><path class="cls-2" d="M246.18,162.23c1.69.94.47,1.4-3.66,1.4q-6.47,1.14-13.21,2v15.44h2.3c0,.56-.06,1.12-.1,1.69h-2.2V196h1c-.06.56-.13,1.12-.19,1.68H215.81V196h9.8V182.76h-18.8v-1.69h18.8V166.44a96.81,96.81,0,0,1-16,2c-1.13-.37-1.13-.84,0-1.4a146.22,146.22,0,0,0,31.22-8.44Z" transform="translate(-5.83 -31.94)"/><path class="cls-2" d="M245.34,196.54c1.12.94.74,1.59-1.13,2v10.72l-3.6,2.21V197.69h-6.16c.06-.56.13-1.12.19-1.68h5.12l1.64-2.32Z" transform="translate(-5.83 -31.94)"/><path class="cls-2" d="M244.21,214.29v4.19c-2.44,2.25-3.65,2.34-3.65.28V216.5Z" transform="translate(-5.83 -31.94)"/><path class="cls-2" d="M237.34,213.41l-2.81,1.69H215.24v3.38c-2.44,2.21-3.63,2.34-3.63.28v-25.6l4.22,2.82v1.71h-.57v15.72Z" transform="translate(-5.83 -31.94)"/><path class="cls-2" d="M208.21,163.63l-10.12,33.75a25,25,0,0,0-.28,12.38q1.11,5.07.56,7.59a2.66,2.66,0,0,1-2.76,2.25,2.49,2.49,0,0,1-2.82-2.11,2.73,2.73,0,0,1,0-.7,32.14,32.14,0,0,1,.57-4.78,32.23,32.23,0,0,0,0-8.44c-.19-1.5-1.23-2.43-3.1-2.81l-3.09-.56v-1.13h6.75l12.94-36C207.55,162.13,208,162.32,208.21,163.63Z" transform="translate(-5.83 -31.94)"/><path class="cls-2" d="M202.61,165.32c0,1.69-.75,2.53-2.25,2.53-.57.19-1.32-.46-2.25-2a17,17,0,0,0-5.91-5.34c-.75-.37-.75-.75,0-1.13Q202.61,161.69,202.61,165.32Z" transform="translate(-5.83 -31.94)"/><path class="cls-3" d="M196.68,181.91c0,1.88-.56,2.82-1.69,2.82-.94,0-1.68-.75-2.25-2.25a11.56,11.56,0,0,0-4.5-5.91c-1.12-.94-1-1.41.28-1.41Q196.68,178,196.68,181.91Z" transform="translate(-5.83 -31.94)"/><path class="cls-2" d="M178.31,173.16c1.12.94,1.12,1.6,0,2H146a45.2,45.2,0,0,1-2.81,4.5l-.84,1.13a39.14,39.14,0,0,1-7.6,8.44c-.94,0-1.12-.38-.56-1.13,1.08-1.32,2.09-2.68,3.06-4.07a68.24,68.24,0,0,0,9.32-19.56l4.78,2q2.81,1.14-2,2.25a35.17,35.17,0,0,1-2.53,4.78h22l4.21-4.21Z" transform="translate(-5.83 -31.94)"/><path class="cls-3" d="M178.87,223.23q-3.37,2-4.22,3.93a64.84,64.84,0,0,1-11.11-3.67,39.73,39.73,0,0,1,3.92-2.6A58.52,58.52,0,0,0,178.87,223.23Z" transform="translate(-5.83 -31.94)"/><path class="cls-2" d="M171,207.76c1.33,1.34.77,1.8-1.68,1.4a67.14,67.14,0,0,1-9.85,8.44c1,.52,2,1,3.1,1.46-1.06.74-2.09,1.54-3.12,2.34a27.31,27.31,0,0,1-2.83-1.83q-9.24,6.18-23.3,8.72c-1.32,0-1.51-.38-.56-1.13q13.5-3.09,22.21-9.28a28.73,28.73,0,0,1-7-8.72,52.8,52.8,0,0,1-15.75,11c-.59,0-.88-.14-.88-.43a1.33,1.33,0,0,1,.32-.69q13.22-7.86,18.56-19.13V198.2h15.72V183.29h-.56V181.6l1.69-2,3.65,2.53c1.13.94.75,1.6-1.12,2v17.16c-1.27,1.17-2.21,1.76-2.82,1.76s-.84-.49-.84-1.48v-1.69H153l1.41,1.41q1.41,1.41-1.41.84a44.69,44.69,0,0,1-3.65,4.78h15.75l2-2Zm-5.9.84h-16a33.61,33.61,0,0,0,7.87,7.6A51.34,51.34,0,0,0,165.09,208.6Z" transform="translate(-5.83 -31.94)"/><path class="cls-2" d="M165.93,189.48v1.68h-20v7h4.22v1.68H146v2.25c-2.44,2.25-3.65,2.35-3.65.28V180.76l.84-1.13,3.38,2h18.84v1.66H146v6.19Z" transform="translate(-5.83 -31.94)"/><polygon class="cls-4" points="160.1 151.35 160.1 157.54 140.13 157.54 140.13 151.35 159.54 151.35 160.1 151.35"/><path class="cls-2" d="M135.75,183c.22.6-.69,1-2.72,1.11q-2.82,4.5-5.07,7.88l1.69.84q2.25,1.41-1.12,2v32.31c-2.44,2.25-3.66,2.35-3.66.28V195.69a83.72,83.72,0,0,1-10.12,9.54c-1,0-1.13-.38-.57-1.13a74.87,74.87,0,0,0,16.6-23.9l4.5,2.24A1.47,1.47,0,0,1,135.75,183Z" transform="translate(-5.83 -31.94)"/><path class="cls-3" d="M134.43,167.82c.56,1.12-.38,1.5-2.81,1.12a47.71,47.71,0,0,1-6.34,6.83c-.55-.77-1.12-1.52-1.73-2.24a64.42,64.42,0,0,0,6.38-8.84Z" transform="translate(-5.83 -31.94)"/><path class="cls-2" d="M120.61,176.69c.48.58.93,1.19,1.37,1.8a67.65,67.65,0,0,1-7.2,4.79c-1,0-1.13-.37-.57-1.13A54.59,54.59,0,0,0,120.61,176.69Z" transform="translate(-5.83 -31.94)"/></g><g id="レイヤー_4" data-name="レイヤー 4"><path class="cls-4" d="M10.22,153a747.39,747.39,0,0,0,144-3.84c47.77-5.92,94.82-18.69,142.36-27.07,23.57-4.16,47.25-6.76,71-6.52s47.71,2.88,71.5,6.2c46.05,6.43,92.07,15.57,138.44,15,42.29-.48,85-8.83,124-33.12q7.26-4.49,14.27-9.79c5.2-3.88.6-15.11-4.6-11.23-37.56,28-80,38.83-122,40.81-45.43,2.17-90.63-5.87-135.73-12.58-23.54-3.51-47.12-6.66-70.78-7.83a364.7,364.7,0,0,0-71.23,3.63c-46.89,6.93-93.17,20.25-140.06,27.2A746.4,746.4,0,0,1,28.23,141q-9-.42-18-1c-5.86-.41-5.85,12.59,0,13Z" transform="translate(-5.83 -31.94)"/></g><g id="レイヤー_4-2" data-name="レイヤー 4"><path class="cls-4" d="M18.19,318C56,285.13,100.3,272.52,144,268.79c49.33-4.21,98.71,2.15,148.06-.09,24.94-1.14,49.79-4.51,74.72-5.86a318.85,318.85,0,0,1,73.49,4.88c24.46,4.35,48.88,9.91,73.57,10.59a210.07,210.07,0,0,0,67.09-9.69c44.24-13.49,86.22-39.56,125.8-70.3q7.49-5.79,14.88-11.86c5.07-4.14.5-15.38-4.59-11.22-39.44,32.19-80.94,60.23-125.1,76.36a216.17,216.17,0,0,1-66.06,13.66c-24.38.91-48.57-3.63-72.69-8.15-24.6-4.62-49.11-8.3-74-7.75-24.71.55-49.34,3.79-74,5.56-49.9,3.59-99.82-2.6-149.73.09C111.8,257.32,67.35,267.11,28,295.32Q20.61,300.6,13.6,306.7C8.65,311.06,13.17,322.32,18.19,318Z" transform="translate(-5.83 -31.94)"/></g><g id="レイヤー_8" data-name="レイヤー 8"><polygon class="cls-5" points="635.54 141.25 598.98 108.44 551.28 120.19 571.12 75 545.39 33.06 594.21 37.95 626.01 0.28 636.35 48.48 681.73 67.14 639.29 92.05 635.54 141.25"/></g></svg>